<svg width="200" height="200" viewBox="0 0 200 200" fill="none" xmlns="http://www.w3.org/2000/svg">
  <defs>
    <linearGradient id="FinPro-grad" x1="20" y1="10" x2="180" y2="190" gradientUnits="userSpaceOnUse">
      <stop stop-color="#1E40AF"/>
      <stop offset="1" stop-color="#22C55E"/>
    </linearGradient>
    <linearGradient id="FinPro-grad-2" x1="60" y1="50" x2="150" y2="170" gradientUnits="userSpaceOnUse">
      <stop stop-color="#0EA5E9" stop-opacity="0.9"/>
      <stop offset="1" stop-color="#22C55E" stop-opacity="0.85"/>
    </linearGradient>
    <filter id="shadow" x="0" y="0" width="200%" height="200%">
      <feOffset result="offOut" in="SourceGraphic" dx="0" dy="6"/>
      <feGaussianBlur result="blurOut" in="offOut" stdDeviation="10"/>
      <feColorMatrix result="matrixOut" in="blurOut" type="matrix"
        values="0 0 0 0 0
                0 0 0 0 0
                0 0 0 0 0
                0 0 0 0.25 0"/>
      <feBlend in="SourceGraphic" in2="matrixOut" mode="normal"/>
    </filter>
  </defs>

  <!-- Background diamond -->
  <rect x="20" y="20" width="160" height="160" rx="26" transform="rotate(45 100 100)" fill="url(#FinPro-grad)" filter="url(#shadow)"/>

  <!-- Inner shape -->
  <path d="M60 125C60 104 76 88 98 88H120C134 88 146 76 146 62C146 48 134 36 120 36H110C86 36 66 56 66 80V88H60C48 88 38 98 38 110V118C38 130 48 140 60 140H72C76 140 79 137 79 133C79 128 76 125 72 125H60Z" fill="url(#FinPro-grad-2)" opacity="0.9"/>

  <!-- FIN letters -->
  <text x="62" y="132" fill="#FFFFFF" font-family="Inter, system-ui, -apple-system, sans-serif" font-weight="800" font-size="52" letter-spacing="1">
    FIN
  </text>

  <!-- Accent dots -->
  <circle cx="150" cy="70" r="6" fill="#22C55E" opacity="0.9"/>
  <circle cx="54" cy="64" r="4" fill="#0EA5E9" opacity="0.8"/>
</svg>

